<svg width="56" height="56" viewBox="0 0 56 56" fill="none" xmlns="http://www.w3.org/2000/svg">
<g clip-path="url(#clip0_1_190)">
<path d="M56 27.9944C56 23.1467 48.9234 19.079 38.5369 17.4408C36.9099 7.12119 32.8422 0 27.9944 0C23.1467 0 19.079 7.13234 17.4408 17.4631C6.88716 19.079 0 23.2135 0 27.9944C0 32.7753 7.13234 36.9099 17.4519 38.5369C19.079 48.8677 23.1467 56 27.9944 56C29.3791 55.9705 30.709 55.4535 31.75 54.5401C32.227 54.1492 32.297 53.4457 31.9061 52.9688C31.5152 52.4918 30.8117 52.4218 30.3347 52.8127C29.6909 53.3964 28.8627 53.7355 27.9944 53.7711C24.8072 53.7711 21.3079 47.9984 19.7699 38.8712C22.4995 39.1947 25.2458 39.3548 27.9944 39.3504C30.743 39.3546 33.4894 39.1946 36.2189 38.8712C35.9551 40.4365 35.6128 41.9875 35.1936 43.5184L33.7783 41.2338C33.4326 40.7247 32.7394 40.5922 32.2302 40.9381C31.752 41.2629 31.6016 41.8994 31.8838 42.404L34.603 46.7725L34.681 46.8617L34.7701 46.962L34.9039 47.0734L35.0042 47.1403L35.1825 47.2183H35.2716C35.3678 47.231 35.4653 47.231 35.5614 47.2183C35.7116 47.2145 35.8594 47.1804 35.996 47.118L41.1558 44.7108C41.7265 44.4806 42.0025 43.8311 41.7722 43.2604C41.542 42.6897 40.8925 42.4137 40.3218 42.644C40.2712 42.6643 40.2222 42.6884 40.1751 42.716L37.3668 44.0979C37.839 42.2846 38.2111 40.4468 38.4812 38.5926C48.8677 36.9099 56 32.8422 56 27.9944ZM38.8712 19.7699C48.0541 21.3636 53.7711 24.8295 53.7711 27.9944C53.7711 31.1594 47.9873 34.681 38.8601 36.2189H38.849C39.1798 33.4898 39.3472 30.7434 39.3504 27.9944C39.3548 25.2458 39.1947 22.4995 38.8712 19.7699ZM17.1288 36.2189H17.1176C8.00159 34.681 2.22886 31.1817 2.22886 27.9944C2.22886 24.5397 8.31363 21.3079 17.1288 19.7588C16.4868 25.2267 16.4868 30.751 17.1288 36.2189ZM36.5755 36.5644H36.5644C33.7194 36.938 30.8528 37.1241 27.9833 37.1216C25.1175 37.1237 22.2547 36.9376 19.4133 36.5644C18.6771 30.871 18.6771 25.1067 19.4133 19.4133L20.8064 19.2462C21.4218 19.1815 21.8684 18.6302 21.8038 18.0147C21.7391 17.3993 21.1878 16.9527 20.5723 17.0173L19.7699 17.1176C21.3079 8.00159 24.8072 2.22886 27.9944 2.22886C31.1817 2.22886 34.681 8.00159 36.2189 17.1288C34.8259 16.9616 33.3883 16.839 31.8949 16.761L33.6223 15.0225C34.0562 14.5855 34.0537 13.8795 33.6167 13.4456C33.1797 13.0116 32.4737 13.0141 32.0398 13.4511L28.4179 17.1065C28.3842 17.1522 28.3544 17.2006 28.3288 17.2513C28.2822 17.3066 28.2411 17.3664 28.2062 17.4297C28.1814 17.4946 28.1627 17.5618 28.1504 17.6302C28.1438 17.7007 28.1438 17.7716 28.1504 17.842C28.1438 17.9125 28.1438 17.9832 28.1504 18.0537C28.1445 18.1205 28.1445 18.1876 28.1504 18.2543C28.1805 18.3248 28.2179 18.3921 28.2619 18.4549C28.2843 18.5051 28.3104 18.5536 28.3399 18.5998L31.9618 23.0018C32.323 23.5001 33.0199 23.6111 33.5182 23.2499C34.0165 22.8887 34.1275 22.1917 33.7663 21.6935C33.7392 21.656 33.7096 21.6202 33.678 21.5865L31.5494 18.9676C33.3029 19.0567 34.9745 19.209 36.5644 19.4245C36.9374 22.2696 37.1235 25.1361 37.1216 28.0056C37.1238 30.8673 36.9415 33.7262 36.5755 36.5644Z" fill="white"/>
</g>
<defs>
<clipPath id="clip0_1_190">
<rect width="56" height="56" fill="white"/>
</clipPath>
</defs>
</svg>
