<svg width="40" height="40" viewBox="0 0 40 40" fill="none" xmlns="http://www.w3.org/2000/svg">
<path d="M20 40C31.0457 40 40 31.0457 40 20C40 8.95431 31.0457 0 20 0C8.95431 0 0 8.95431 0 20C0 31.0457 8.95431 40 20 40Z" fill="white"/>
<path d="M20.001 16.1847C17.8898 16.1847 16.1858 17.8886 16.1858 19.9999C16.1858 22.1111 17.8898 23.815 20.001 23.815C22.1122 23.815 23.816 22.1111 23.816 19.9999C23.816 17.8886 22.1122 16.1847 20.001 16.1847ZM20.001 22.4794C18.6357 22.4794 17.5215 21.3652 17.5215 19.9999C17.5215 18.6345 18.6357 17.5203 20.001 17.5203C21.3663 17.5203 22.4805 18.6345 22.4805 19.9999C22.4805 21.3652 21.3663 22.4794 20.001 22.4794ZM23.9723 15.1394C23.4794 15.1394 23.0814 15.5374 23.0814 16.0303C23.0814 16.5233 23.4794 16.9214 23.9723 16.9214C24.4653 16.9214 24.8634 16.5252 24.8634 16.0303C24.8635 15.9133 24.8405 15.7974 24.7958 15.6892C24.7511 15.5811 24.6855 15.4828 24.6027 15.4001C24.5199 15.3172 24.4217 15.2516 24.3135 15.2069C24.2053 15.1622 24.0894 15.1392 23.9723 15.1394ZM27.4378 19.9999C27.4378 18.9731 27.4471 17.9556 27.3894 16.9306C27.3318 15.7402 27.0601 14.6837 26.1896 13.8131C25.3172 12.9407 24.2625 12.671 23.072 12.6133C22.0453 12.5557 21.0278 12.565 20.0028 12.565C18.976 12.565 17.9586 12.5557 16.9337 12.6133C15.7432 12.671 14.6866 12.9425 13.816 13.8131C12.9437 14.6855 12.6739 15.7402 12.6163 16.9306C12.5586 17.9575 12.5679 18.9749 12.5679 19.9999C12.5679 21.0248 12.5586 22.0442 12.6163 23.0691C12.6739 24.2596 12.9456 25.3161 13.816 26.1866C14.6885 27.059 15.7432 27.3287 16.9337 27.3864C17.9604 27.4441 18.9779 27.4347 20.0028 27.4347C21.0297 27.4347 22.0471 27.4441 23.072 27.3864C24.2625 27.3287 25.3191 27.0572 26.1896 26.1866C27.062 25.3143 27.3318 24.2596 27.3894 23.0691C27.4489 22.0442 27.4378 21.0266 27.4378 19.9999ZM25.8008 24.3861C25.6651 24.7245 25.5014 24.9776 25.2391 25.238C24.9768 25.5002 24.7257 25.664 24.3872 25.7997C23.4087 26.1885 21.0855 26.1011 20.001 26.1011C18.9165 26.1011 16.5914 26.1885 15.613 25.8016C15.2744 25.6658 15.0215 25.5021 14.761 25.2399C14.4987 24.9776 14.3351 24.7264 14.1993 24.3879C13.8123 23.4076 13.8998 21.0843 13.8998 19.9999C13.8998 18.9154 13.8123 16.5903 14.1993 15.6119C14.3351 15.2733 14.4987 15.0203 14.761 14.7599C15.0233 14.4995 15.2744 14.334 15.613 14.1982C16.5914 13.8112 18.9165 13.8986 20.001 13.8986C21.0855 13.8986 23.4106 13.8112 24.389 14.1982C24.7276 14.334 24.9805 14.4977 25.2409 14.7599C25.5032 15.0222 25.6669 15.2733 25.8027 15.6119C26.1896 16.5903 26.1021 18.9154 26.1021 19.9999C26.1021 21.0843 26.1896 23.4076 25.8008 24.3861Z" fill="url(#paint0_linear_127_107)"/>
<defs>
<linearGradient id="paint0_linear_127_107" x1="20.003" y1="12.5645" x2="20.003" y2="27.4353" gradientUnits="userSpaceOnUse">
<stop stop-color="#9930BD"/>
<stop offset="1" stop-color="#F7924A"/>
</linearGradient>
</defs>
</svg>
