<svg width="8" height="5" viewBox="0 0 8 5" fill="none" xmlns="http://www.w3.org/2000/svg">
<path d="M1.35355 0.646446C1.15829 0.451184 0.841708 0.451185 0.646446 0.646447C0.451184 0.84171 0.451185 1.15829 0.646447 1.35355L1.35355 0.646446ZM3.8036 3.80359L3.45005 4.15715L3.8036 4.5107L4.15715 4.15714L3.8036 3.80359ZM6.96075 1.35355C7.15601 1.15829 7.15601 0.841709 6.96075 0.646447C6.76548 0.451184 6.4489 0.451184 6.25364 0.646447L6.96075 1.35355ZM0.646447 1.35355L3.45005 4.15715L4.15715 3.45004L1.35355 0.646446L0.646447 1.35355ZM4.15715 4.15714L6.96075 1.35355L6.25364 0.646447L3.45005 3.45004L4.15715 4.15714Z" fill="#0C4C91"/>
</svg>
